<?xml version="1.0" encoding="UTF-8"?>
<svg id="Camada_2" data-name="Camada 2" xmlns="http://www.w3.org/2000/svg" viewBox="0 0 127.5 187.7">
  <defs>
    <style>
      .cls-1 {
        fill: #d7c191;
      }
    </style>
  </defs>
  <g id="Camada_1-2" data-name="Camada 1">
    <g>
      <path class="cls-1" d="M79.6,187.7h-2.38c0-47.13-18.32-61.46-37.71-76.62C21.86,97.28,3.6,83,.8,42.36.08,31.89-.15,17.76.1.35l2.38.03c-.25,17.34-.01,31.41.7,41.81,2.72,39.58,19.76,52.91,37.8,67.01,18.99,14.85,38.62,30.2,38.62,78.49Z"/>
      <path class="cls-1" d="M83.21,114.49l-1.48-1.86c1.59-1.27,3.19-2.52,4.79-3.78,18.04-14.11,35.08-27.43,37.8-67.01.72-10.42.95-24.49.7-41.81l2.38-.03c.25,17.39.01,31.52-.71,42.01-2.8,40.64-21.05,54.91-38.71,68.72-1.6,1.25-3.19,2.49-4.77,3.76Z"/>
    </g>
  </g>
</svg>